<svg height="30" viewBox="0 0 64 64" width="30" xmlns="http://www.w3.org/2000/svg"><g fill="#85c099"><path d="M50 18c-5.514 0-10-4.486-10-10a2 2 0 0 0-2-2H26a2 2 0 0 0-2 2c0 5.514-4.486 10-10 10a2 2 0 0 0-2 2v12c0 11.933 18.063 25.071 18.832 25.624a2.003 2.003 0 0 0 2.336-.001C33.938 57.07 52 43.933 52 32V20a2 2 0 0 0-2-2zm-2 14c0 7.604-10.639 17.373-16 21.504C26.637 49.377 16 39.615 16 32V21.857c6.122-.879 10.978-5.735 11.857-11.857h8.285c.879 6.123 5.736 10.979 11.858 11.858V32z"/><path d="M38.586 26.586L30 35.172l-2.586-2.586a2 2 0 1 0-2.828 2.828l4 4c.39.391.902.586 1.414.586s1.024-.195 1.414-.586l10-10a2 2 0 1 0-2.828-2.828z"/></g></svg>