<svg height="100" width="100" xmlns="http://www.w3.org/2000/svg"><path d="M29 11c-4.397 0-8 3.603-8 8v15.375a57.184 57.184 0 0 0-7.656 8.75C8.769 49.598 6 56.32 6 62c0 7.685 5.301 14.493 13.281 19.281C27.261 86.07 38.072 89 50 89a2 2 0 1 0 0-4c-11.268 0-21.435-2.823-28.656-7.156S10 67.83 10 62c0-4.307 2.38-10.556 6.625-16.563 4.245-6.005 10.296-11.81 17.344-15.687A2 2 0 0 0 35 28v-3h30v3a2 2 0 0 0 1.031 1.75c7.048 3.877 13.1 9.682 17.344 15.688C87.62 51.443 90 57.693 90 62c0 5.139-3.18 10.14-8.906 14.25-5.726 4.11-13.897 7.174-23.281 8.281a2 2 0 1 0 .468 3.969c9.966-1.175 18.739-4.393 25.157-9C89.855 74.893 94 68.774 94 62c0-5.68-2.769-12.402-7.344-18.875A57.184 57.184 0 0 0 79 34.375V19c0-4.397-3.603-8-8-8H29zm0 4h42c2.25 0 4 1.75 4 4v12c-1.9-1.476-3.895-2.868-6-4.094V23a2 2 0 0 0-2-2H33a2 2 0 0 0-.188 0A2 2 0 0 0 31 23v3.906c-2.105 1.226-4.1 2.618-6 4.094V19c0-2.25 1.75-4 4-4zm20.781 17.969A2 2 0 0 0 48 35v2.094c-1.695.21-3.44.759-5 1.75-2.207 1.401-4 3.925-4 7.156 0 3.111 1.642 5.485 3.719 6.844C44.35 53.912 46.19 54.54 48 55.062v10.532c-.97-.325-1.946-.827-2.75-1.469C43.854 63.009 43 61.633 43 60a2 2 0 1 0-4 0c0 3.053 1.649 5.57 3.75 7.25 1.56 1.246 3.389 2.134 5.25 2.531V72a2 2 0 1 0 4 0v-2.094c1.695-.219 3.44-.79 5-1.781 2.207-1.402 4-3.894 4-7.125 0-3.082-1.644-5.479-3.719-6.813-1.63-1.048-3.473-1.613-5.281-2.124V41.406c.97.316 1.946.795 2.75 1.438C56.146 43.96 57 45.367 57 47a2 2 0 1 0 4 0c0-3.053-1.649-5.602-3.75-7.281A12.565 12.565 0 0 0 52 37.25V35a2 2 0 0 0-2.219-2.031zM48 41.187v9.688c-1.22-.406-2.308-.861-3.094-1.375C43.608 48.65 43 47.918 43 46c0-1.873.813-2.928 2.156-3.781.812-.516 1.828-.842 2.844-1.032zm4 15.063c1.218.4 2.309.808 3.094 1.313C56.394 58.398 57 59.129 57 61c0 1.873-.813 2.897-2.156 3.75-.81.515-1.829.864-2.844 1.063V56.25z" style="text-indent:0;text-align:start;line-height:normal;text-transform:none;block-progression:tb;marker:none;-inkscape-font-specification:Sans" font-weight="400" color="#000" fill="#bcc9cf" stroke-width="4" overflow="visible" font-family="Sans"/></svg>