<svg xmlns="http://www.w3.org/2000/svg" width="98.8" height="106.255" version="1" viewBox="0 0 736 791" shape-rendering="geometricPrecision" text-rendering="geometricPrecision" image-rendering="optimizeQuality" fill-rule="evenodd" clip-rule="evenodd"><defs><style>.str1{stroke:#ef7f1a;stroke-width:7.31869}.str0{stroke:#b0bec4;stroke-width:14.0744}.fil0,.fil1{fill-rule:nonzero}.fil1{fill:#ef7f1a}.fil0{fill:#b0bec4}</style></defs><g id="Слой_x0020_1"><path class="fil0 str0" d="M715 784c-8 0-14-6-14-14V118c0-15-12-28-28-28H562c0 31-25 56-55 56H229c-31 0-55-25-55-56H63c-16 0-28 13-28 28v652c0 8-6 14-14 14s-14-6-14-14V118c0-31 25-55 56-55h111c0-31 24-56 55-56h278c30 0 55 25 55 56h111c31 0 56 24 56 55v652c0 8-6 14-14 14zM229 35c-15 0-28 12-28 28v27c0 16 13 28 28 28h278c15 0 27-12 27-28V63c0-16-12-28-27-28H229zm414 749c-8 0-14-6-14-14V229c0-7-7-14-14-14H121c-8 0-14 7-14 14v541c0 8-6 14-14 14-7 0-14-6-14-14V215c0-15 13-27 28-27h522c15 0 27 12 27 27v555c0 8-6 14-13 14zm-386 0h-56c-15 0-27-12-27-27v-56c0-15 12-28 27-28h56c15 0 28 13 28 28v56c0 15-13 27-28 27zm-42-83c-7 0-14 6-14 14v28c0 7 7 14 14 14h28c8 0 14-7 14-14v-28c0-8-6-14-14-14h-28zm250 56H354c-8 0-14-7-14-14 0-8 6-14 14-14h111c8 0 14 6 14 14 0 7-6 14-14 14zm83-56H354c-8 0-14-6-14-14s6-14 14-14h194c8 0 14 6 14 14s-6 14-14 14zM218 590h-17c-15 0-27-12-27-28v-55c0-5 1-9 2-13 6 36 20 69 42 96zm-31-198c-8-5-13-14-13-24v-56c0-15 12-27 27-27h56c5 0 10 1 14 4-11 6-21 14-31 23h-25c-7 0-14 7-14 14v28c0 2 1 4 1 5-6 11-11 21-15 33zm361-80h-29c-10-6-23-8-34-6l-3-9c-2-5-4-9-8-12h74c8 0 14 6 14 14 0 7-6 13-14 13zM410 90h-84c-7 0-14-6-14-14 0-7 7-13 14-13h84c7 0 13 6 13 13 0 8-6 14-13 14z"/><path class="fil1 str1" d="M199 463c1-99 81-179 180-180h1c10 0 18 8 18 18s-8 18-18 18c-80 0-144 65-144 144 0 80 64 145 144 145 79 0 144-64 144-144v-1c0-10 8-18 18-18s18 8 18 18c0 100-81 181-180 181-100 0-180-81-181-181zm181 18c-10 0-18-8-18-18v-90c0-10 8-18 18-18s18 8 18 18v72h72c10 0 18 8 18 18s-8 18-18 18h-90zm133-73c-2-4-2-9 0-14 2-4 6-8 10-9 9-4 20 0 24 9 1 5 1 10 0 14-2 5-6 8-10 10-2 1-5 1-7 1-7 0-14-4-17-11zm-31-47c-7-7-7-18 0-25s18-7 25 0c8 7 8 18 0 25-3 4-8 6-12 6-5 0-10-2-13-6zm-47-31c-4-2-8-5-10-10-2-4-2-9 0-14 4-9 15-13 24-9 4 1 8 5 10 9 1 5 1 10 0 14-3 7-10 11-17 11-2 0-5 0-7-1z"/></g></svg>