<svg xmlns="http://www.w3.org/2000/svg" width="146.275" height="117.414" version="1" viewBox="0 0 23943 19219" shape-rendering="geometricPrecision" text-rendering="geometricPrecision" image-rendering="optimizeQuality" fill-rule="evenodd" clip-rule="evenodd"><defs><style>.str0{stroke:#b0bec4;stroke-width:309.328}.str1{stroke:#ef7f1a;stroke-width:61.8656}.fil0{fill:none}.fil0,.fil1,.fil2{fill-rule:nonzero}.fil2{fill:#ef7f1a}.fil1{fill:#b0bec4}</style></defs><g id="Слой_x0020_1"><path class="fil0 str0" d="M11973 19064c-262 0-520-60-755-175l-6770-3358c-572-283-934-865-935-1503v-1630l-1835-912c-260-128-452-362-527-641-75-281-25-579 135-821l2092-3110L538 5079c-223-143-364-382-383-642v-127c22-296 199-558 466-689L7257 330c234-115 493-175 754-175 327-1 648 93 923 270l3036 1962 3035-1962c276-177 596-270 924-270 261 0 520 60 755 176l6635 3290c272 133 450 402 468 704 18 301-128 590-382 754l-2840 1834 2091 3110c161 241 210 541 135 822-75 280-268 513-528 641l-1833 909v1631c-1 638-364 1220-936 1502l-6769 3358c-234 116-491 177-752 178zm338-4937v4198c40-11 79-25 117-42l6769-3358c342-168 559-516 560-897v-1296l-4391 2178c-140 70-295 106-452 106-339 0-656-168-846-449l-498-743c212-85 417-184 613-297l446 664c65 94 171 151 285 150 53 1 106-12 153-36l6900-3422c87-42 152-120 176-214 25-92 8-191-45-270l-2117-3150-3591 1781c-83-150-205-277-353-364 48-64 88-135 119-210 11-25 20-52 29-78l3150-1562-7023-3485v1627c-136-72-290-113-454-113h-18c-68 0-136 2-204 5V3329L4613 6814l2779 1378c-65 221-113 448-144 681L3969 7247l-2117 3151c-53 78-70 175-45 267 24 93 88 171 175 213l6904 3424c47 23 99 35 152 35 113 0 218-56 282-149l381-569c203 106 414 198 632 274l-452 672c-190 279-506 447-844 447-156 0-310-36-450-106l-4396-2179v1296c1 381 218 729 560 898l6771 3357c38 16 78 30 117 42v-4176c73 3 146 5 219 5 153 0 304-7 453-22zM15932 830c-198 0-391 57-557 164l-2720 1758 7418 3680 2967-1917c50-31 79-88 75-148-3-60-38-113-92-138L16387 938c-142-70-297-107-455-108zm-7917 0c-158 0-314 37-455 106L924 4227c-54 25-90 78-93 138-4 60 25 117 77 148l2966 1917 7418-3679L8572 993c-167-107-360-163-557-163z"/><path id="1" class="fil1" d="M11973 19064c-262 0-520-60-755-175l-6770-3358c-572-283-934-865-935-1503v-1630l-1835-912c-260-128-452-362-527-641-75-281-25-579 135-821l2092-3110L538 5079c-223-143-364-382-383-642v-127c22-296 199-558 466-689L7257 330c234-115 493-175 754-175 327-1 648 93 923 270l3036 1962 3035-1962c276-177 596-270 924-270 261 0 520 60 755 176l6635 3290c272 133 450 402 468 704 18 301-128 590-382 754l-2840 1834 2091 3110c161 241 210 541 135 822-75 280-268 513-528 641l-1833 909v1631c-1 638-364 1220-936 1502l-6769 3358c-234 116-491 177-752 178zm338-4937v4198c40-11 79-25 117-42l6769-3358c342-168 559-516 560-897v-1296l-4391 2178c-140 70-295 106-452 106-339 0-656-168-846-449l-498-743c212-85 417-184 613-297l446 664c65 94 171 151 285 150 53 1 106-12 153-36l6900-3422c87-42 152-120 176-214 25-92 8-191-45-270l-2117-3150-3591 1781c-83-150-205-277-353-364 48-64 88-135 119-210 11-25 20-52 29-78l3150-1562-7023-3485v1627c-136-72-290-113-454-113h-18c-68 0-136 2-204 5V3329L4613 6814l2779 1378c-65 221-113 448-144 681L3969 7247l-2117 3151c-53 78-70 175-45 267 24 93 88 171 175 213l6904 3424c47 23 99 35 152 35 113 0 218-56 282-149l381-569c203 106 414 198 632 274l-452 672c-190 279-506 447-844 447-156 0-310-36-450-106l-4396-2179v1296c1 381 218 729 560 898l6771 3357c38 16 78 30 117 42v-4176c73 3 146 5 219 5 153 0 304-7 453-22zM15932 830c-198 0-391 57-557 164l-2720 1758 7418 3680 2967-1917c50-31 79-88 75-148-3-60-38-113-92-138L16387 938c-142-70-297-107-455-108zm-7917 0c-158 0-314 37-455 106L924 4227c-54 25-90 78-93 138-4 60 25 117 77 148l2966 1917 7418-3679L8572 993c-167-107-360-163-557-163z"/><path class="fil0 str1" d="M7763 9497c2-2253 1823-4083 4077-4095h18c226 0 410 183 410 409 0 227-184 410-410 410-1809 2-3274 1468-3276 3276 2 1809 1467 3275 3276 3277 1803-2 3266-1459 3276-3262v-15c0-226 184-410 410-410s410 184 410 410c-3 2261-1835 4093-4096 4095-2261-2-4093-1834-4095-4095zm4095 410c-226 0-409-183-409-410V7450c0-227 183-410 409-410s410 183 410 410v1638h1638c226 0 409 183 409 409 0 227-183 410-409 410h-2048zm3027-1663c-42-101-42-214 0-314 41-100 121-180 222-222 209-86 448 13 534 222 42 100 42 213 1 314-42 100-122 180-222 221-50 21-103 31-157 31-166 0-315-100-378-253v1zm-710-1065c-160-160-160-419 0-579s419-160 579 0 160 419 0 579c-77 77-181 120-290 120-108 0-212-42-289-119v-1zm-1065-710c-100-42-180-122-222-222-41-100-41-213 0-314 87-208 326-308 535-221 101 41 181 121 222 221 42 101 42 214 0 314-63 153-212 253-378 253-53 0-106-10-155-30l-2-1z"/><path id="1" class="fil2" d="M7763 9497c2-2253 1823-4083 4077-4095h18c226 0 410 183 410 409 0 227-184 410-410 410-1809 2-3274 1468-3276 3276 2 1809 1467 3275 3276 3277 1803-2 3266-1459 3276-3262v-15c0-226 184-410 410-410s410 184 410 410c-3 2261-1835 4093-4096 4095-2261-2-4093-1834-4095-4095zm4095 410c-226 0-409-183-409-410V7450c0-227 183-410 409-410s410 183 410 410v1638h1638c226 0 409 183 409 409 0 227-183 410-409 410h-2048zm3027-1663c-42-101-42-214 0-314 41-100 121-180 222-222 209-86 448 13 534 222 42 100 42 213 1 314-42 100-122 180-222 221-50 21-103 31-157 31-166 0-315-100-378-253v1zm-710-1065c-160-160-160-419 0-579s419-160 579 0 160 419 0 579c-77 77-181 120-290 120-108 0-212-42-289-119v-1zm-1065-710c-100-42-180-122-222-222-41-100-41-213 0-314 87-208 326-308 535-221 101 41 181 121 222 221 42 101 42 214 0 314-63 153-212 253-378 253-53 0-106-10-155-30l-2-1z"/></g></svg>