<svg xmlns="http://www.w3.org/2000/svg" width="116.312" height="91.658" version="1" viewBox="0 0 484 382" shape-rendering="geometricPrecision" text-rendering="geometricPrecision" image-rendering="optimizeQuality" fill-rule="evenodd" clip-rule="evenodd"><defs><style>.str1{stroke:#ef7f1a;stroke-width:3.14732}.str0{stroke:#b0bec4;stroke-width:1.57366}.fil0{fill:none}.fil2{fill:#ef7f1a}.fil1{fill:#b0bec4}</style></defs><g id="Слой_x0020_1"><g id="_2653709885584"><path class="fil0 str0" d="M482 272c-9-30-33-53-63-63l-117-37-25-69c-9-28-26-53-48-72L193 3c-4-3-9-3-13-1-4 3-6 7-5 12l26 126-116-36c-4-1-7-5-7-9l-9-49c-2-7-5-14-11-19L39 11c-3-3-7-4-11-2-3 1-6 4-7 8L2 106c-5 31 9 61 35 77 5 3 12 2 15-3 4-5 2-12-3-15-19-12-29-34-26-55l16-70 5 4c1 2 3 4 3 6l9 49c2 12 11 22 22 26l134 42c3 1 7 0 10-3 3-2 5-6 4-10L203 38l12 10c19 16 33 38 41 62l27 75c1 3 4 5 7 6l122 39c24 7 42 26 50 50l-197-54c-5-1-12 2-13 8-2 6 2 12 8 14l197 54h4c6 0 13-3 17-8 5-6 7-14 4-22z"/><path id="1" class="fil1" d="M482 272c-9-30-33-53-63-63l-117-37-25-69c-9-28-26-53-48-72L193 3c-4-3-9-3-13-1-4 3-6 7-5 12l26 126-116-36c-4-1-7-5-7-9l-9-49c-2-7-5-14-11-19L39 11c-3-3-7-4-11-2-3 1-6 4-7 8L2 106c-5 31 9 61 35 77 5 3 12 2 15-3 4-5 2-12-3-15-19-12-29-34-26-55l16-70 5 4c1 2 3 4 3 6l9 49c2 12 11 22 22 26l134 42c3 1 7 0 10-3 3-2 5-6 4-10L203 38l12 10c19 16 33 38 41 62l27 75c1 3 4 5 7 6l122 39c24 7 42 26 50 50l-197-54c-5-1-12 2-13 8-2 6 2 12 8 14l197 54h4c6 0 13-3 17-8 5-6 7-14 4-22z"/><path class="fil2 str1" d="M191 242l-64 64-29-29c-3-4-9-4-12 0-4 3-4 9 0 12l35 36c2 1 4 2 6 2s5-1 6-2l71-71c3-3 3-9 0-12-4-4-9-4-13 0zm-46-56c-54 0-97 44-97 97 0 54 43 97 97 97 53 0 97-43 97-97 0-53-44-97-97-97zm0 176c-44 0-80-35-80-79s36-79 80-79 79 35 79 79-35 79-79 79z"/></g></g></svg>