<svg xmlns="http://www.w3.org/2000/svg" width="96.422" height="102.078" version="1" viewBox="0 0 323 342" shape-rendering="geometricPrecision" text-rendering="geometricPrecision" image-rendering="optimizeQuality" fill-rule="evenodd" clip-rule="evenodd"><defs><style>.str1{stroke:#ef7f1a;stroke-width:8.86021}.str0{stroke:#b0bec4;stroke-width:6.32872}.fil0{fill:none}.fil2{fill:#ef7f1a}.fil1{fill:#b0bec4}</style></defs><g id="Слой_x0020_1"><path class="fil0 str0" d="M225 283c-1-3-4-6-9-8-6-2-12-4-18-7-13-4-26-9-39-13-5-2-9-1-12 1-3 3-4 7-3 11 0 2 0 3 1 5 0 2 0 3 1 4v5l2 6-7-1h-3c-56-8-100-50-110-104-2-10-3-20-3-30 2-36 17-69 44-93 23-21 52-34 84-35 8 0 16 0 23 2 4 0 8 1 11 2 5 1 11-2 13-7 2-6-1-13-8-14-8-2-17-3-25-4-27-1-52 4-73 13-11 5-22 12-32 20-6 5-11 10-17 16C10 92-3 136 6 182c2 11 6 23 10 34 19 45 53 74 101 88 7 2 14 3 21 4 4 0 7 1 11 2h3l1 3c0 2 0 3 1 5 0 2 0 3 1 5 0 2 0 4 1 6 1 5 3 8 7 9s8 0 11-3c15-13 31-27 46-40 4-4 6-8 5-12z"/><path id="1" class="fil1" d="M225 283c-1-3-4-6-9-8-6-2-12-4-18-7-13-4-26-9-39-13-5-2-9-1-12 1-3 3-4 7-3 11 0 2 0 3 1 5 0 2 0 3 1 4v5l2 6-7-1h-3c-56-8-100-50-110-104-2-10-3-20-3-30 2-36 17-69 44-93 23-21 52-34 84-35 8 0 16 0 23 2 4 0 8 1 11 2 5 1 11-2 13-7 2-6-1-13-8-14-8-2-17-3-25-4-27-1-52 4-73 13-11 5-22 12-32 20-6 5-11 10-17 16C10 92-3 136 6 182c2 11 6 23 10 34 19 45 53 74 101 88 7 2 14 3 21 4 4 0 7 1 11 2h3l1 3c0 2 0 3 1 5 0 2 0 3 1 5 0 2 0 4 1 6 1 5 3 8 7 9s8 0 11-3c15-13 31-27 46-40 4-4 6-8 5-12z"/><path class="fil0 str1" d="M232 30l-8 12c-1 2-4 3-6 2v-1c-1 0-1-1-2-2 0-1 0-2 1-4 2-4 5-8 7-12 1-1 3-2 4-2h2c1 0 1 0 1 1 2 2 1 5 1 6z"/><path id="1" class="fil2" d="M232 30l-8 12c-1 2-4 3-6 2v-1c-1 0-1-1-2-2 0-1 0-2 1-4 2-4 5-8 7-12 1-1 3-2 4-2h2c1 0 1 0 1 1 2 2 1 5 1 6z"/><path class="fil0 str1" d="M271 63l-11 9c-3 2-6 2-8 0-1 0-1 0-1-1-1-1-2-3-2-4 0-2 1-4 3-5 4-3 7-6 11-9 1-1 3-2 5-2 1 0 2 0 3 1 1 0 1 1 1 1 3 3 2 7-1 10z"/><path id="1" class="fil2" d="M271 63l-11 9c-3 2-6 2-8 0-1 0-1 0-1-1-1-1-2-3-2-4 0-2 1-4 3-5 4-3 7-6 11-9 1-1 3-2 5-2 1 0 2 0 3 1 1 0 1 1 1 1 3 3 2 7-1 10z"/><path class="fil0 str1" d="M276 110c2 1 4 2 6 2 1 0 2 0 3-1l13-4c5-2 8-7 6-12l-3-3c-2-2-6-2-9-1h-2c-4 2-7 3-11 5-2 0-4 2-5 5-1 2-1 4 0 6 0 1 1 3 2 3z"/><path id="1" class="fil2" d="M276 110c2 1 4 2 6 2 1 0 2 0 3-1l13-4c5-2 8-7 6-12l-3-3c-2-2-6-2-9-1h-2c-4 2-7 3-11 5-2 0-4 2-5 5-1 2-1 4 0 6 0 1 1 3 2 3z"/><path class="fil0 str1" d="M315 142c-1-1-4-3-7-3-4 0-9-1-14-1-3 0-6 1-8 3-3 2-4 4-4 7s1 6 3 8 4 3 7 3l14 1c7 1 12-3 12-9 1-4 0-7-3-9z"/><path id="1" class="fil2" d="M315 142c-1-1-4-3-7-3-4 0-9-1-14-1-3 0-6 1-8 3-3 2-4 4-4 7s1 6 3 8 4 3 7 3l14 1c7 1 12-3 12-9 1-4 0-7-3-9z"/><path class="fil0 str1" d="M305 197c-1-1-3-2-4-3-4-1-9-3-13-5-3-2-7-2-11-1-3 1-5 4-6 7-2 5-1 10 2 14 2 1 3 2 5 3l12 6c2 0 4 1 5 1 6 0 10-2 13-7 2-5 1-11-3-15z"/><path id="1" class="fil2" d="M305 197c-1-1-3-2-4-3-4-1-9-3-13-5-3-2-7-2-11-1-3 1-5 4-6 7-2 5-1 10 2 14 2 1 3 2 5 3l12 6c2 0 4 1 5 1 6 0 10-2 13-7 2-5 1-11-3-15z"/><path class="fil0 str1" d="M277 247c-4-3-9-7-14-10-3-2-6-4-10-4h-1c-4 1-8 3-10 6-5 7-4 16 3 21l14 11c3 2 7 4 10 4 4 0 8-2 11-6 6-7 4-16-3-22z"/><path id="1" class="fil2" d="M277 247c-4-3-9-7-14-10-3-2-6-4-10-4h-1c-4 1-8 3-10 6-5 7-4 16 3 21l14 11c3 2 7 4 10 4 4 0 8-2 11-6 6-7 4-16-3-22z"/></g></svg>