<svg height="28" viewBox="0 0 56.693 56.693" width="28" xmlns="http://www.w3.org/2000/svg"><g fill="#6a8cba"><path d="M33.619 31.814H15.707a.606.606 0 0 0 0 1.212h17.912a.605.605 0 1 0 0-1.212zm0 11.82H15.707a.607.607 0 1 0 0 1.213h17.912a.606.606 0 1 0 0-1.213zm0-5.882H15.707a.606.606 0 0 0 0 1.212h17.912a.605.605 0 1 0 0-1.212zM15.707 27.059h7.167a.606.606 0 1 0 0-1.212h-7.167a.607.607 0 1 0 0 1.212z"/><path d="M35.185 13.489a1.515 1.515 0 0 0-1.063-.436H8.98c-.837 0-1.515.678-1.515 1.515v38.533c0 .837.678 1.516 1.515 1.516h31.493c.839 0 1.517-.678 1.517-1.516V20.829c0-.405-.163-.794-.452-1.079l-6.353-6.261zm3.774 38.097H10.495V16.083h22.718v4.76c0 .501.406.908.909.908h4.837v29.835z"/><path d="M49.841 11.403l-6.352-6.261a1.514 1.514 0 0 0-1.063-.435H17.283c-.837 0-1.515.678-1.515 1.515V9.68h3.03V7.736h22.718v4.76c0 .502.406.908.909.908h4.837v29.834h-1.9v3.031h3.413c.839 0 1.517-.678 1.517-1.516V12.481a1.512 1.512 0 0 0-.451-1.078z"/></g></svg>