<svg viewBox="0 0 32 32" xmlns="http://www.w3.org/2000/svg"><g fill="#e47b7b"><path d="M9 22c0 1.654 1.346 3 3 3s3-1.346 3-3-1.346-3-3-3-3 1.346-3 3zm3-1c.551 0 1 .449 1 1s-.449 1-1 1-1-.449-1-1 .449-1 1-1z"/><path d="M24.545 16.028l.239-1.844L27.274 4H6.515L5.67.749A1 1 0 0 0 4.703 0H0v2h3.93l2.946 11.325c.16.97.989 1.675 1.973 1.675h13.817l-.15 1.144a7.93 7.93 0 0 0-2.515.939V17H8v2h9.765A7.956 7.956 0 0 0 16 24c0 4.411 3.589 8 8 8s8-3.589 8-8c0-4.227-3.298-7.69-7.455-7.972zM18 11v1.965l-4-.024V11h4zm-4-2V6h4v3h-4zm6 2h3.504l-.487 1.994L20 12.976V11zm3.993-2H20V6h4.726l-.733 3zM12 6v3H7.814l-.779-3H12zm-3.17 6.911L8.334 11H12v1.929l-3.17-.018zM24 30c-3.309 0-6-2.691-6-6s2.691-6 6-6 6 2.691 6 6-2.691 6-6 6z"/><path d="M20 23h8v2h-8z"/></g></svg>