<svg height="128" viewBox="0 0 8016 8016" width="128" xmlns="http://www.w3.org/2000/svg" shape-rendering="geometricPrecision" text-rendering="geometricPrecision" image-rendering="optimizeQuality" fill-rule="evenodd" clip-rule="evenodd"><defs><style>.fil0{fill:none}.fil1,.fil2{fill-rule:nonzero}.fil2{fill:#464d5c}.fil1{fill:#f26e6c}</style></defs><g id="Layer_x0020_1"><path class="fil0" d="M0 0h8016v8016H0z"/><path class="fil1" d="M6937 3591c52 0 94 42 94 94s-42 94-94 94H94c-52 0-94-42-94-94s42-94 94-94h6843zM94 2856c-52 0-94-42-94-94 0-51 42-93 94-93h6843c52 0 94 42 94 93 0 52-42 94-94 94H94z"/><path class="fil2" d="M0 6182V2702c0-162 66-309 173-416 106-106 253-173 415-173h5855c162 0 309 67 415 173 107 107 173 254 173 416v3480c0 162-66 309-173 415-106 107-253 173-415 173H588c-162 0-309-66-415-173C66 6491 0 6344 0 6182zm188-3480v3480c0 110 45 210 118 283 72 72 172 117 282 117h5855c110 0 210-45 282-117 73-73 118-173 118-283V2702c0-110-45-210-118-283-72-73-172-118-282-118H588c-110 0-210 45-282 118-73 73-118 173-118 283z"/><path class="fil1" d="M1173 1834c0 52-42 94-94 94s-94-42-94-94c0-162 66-309 173-416 106-106 253-172 415-172h5855c161 0 308 66 415 172 107 107 173 254 173 416v3480c0 162-66 309-173 416-107 106-254 172-415 172h-161c-52 0-94-42-94-94s42-94 94-94h161c110 0 210-45 282-117 73-73 118-173 118-283V1834c0-110-45-210-118-283-72-72-172-118-282-118H1573c-110 0-210 46-283 118-72 73-117 173-117 283z"/><path class="fil2" d="M1132 4385h4767v-221H1132v221zm4861 188H1038c-52 0-94-42-94-94v-409c0-52 42-94 94-94h4955c52 0 94 42 94 94v409c0 52-42 94-94 94zm-3620 836c52 0 94 43 94 94 0 52-42 94-94 94H1038c-52 0-94-42-94-94 0-51 42-94 94-94h1335zm1244 496c52 0 94 43 94 94 0 52-42 94-94 94H1038c-52 0-94-42-94-94 0-51 42-94 94-94h2579z"/><path class="fil1" d="M4951 6156c-156 0-297-63-399-165s-166-243-166-399 64-297 166-400c102-102 243-165 399-165 15 0 31 1 47 2s31 3 47 6c51 8 86 57 77 108-8 51-57 85-108 77-9-2-19-3-31-4 0-1-29-1-32-1-104 0-198 42-266 110s-111 163-111 267 43 198 111 266 162 111 266 111c21 0 43-2 63-5 51-9 100 26 108 77 9 51-26 99-77 108-35 8-61 6-94 7zm775-1129c156 0 297 63 400 165 102 102 165 244 165 400s-63 297-165 399c-103 102-244 165-400 165s-297-63-399-165-166-243-166-399 64-297 166-400c102-102 243-165 399-165zm267 298c-68-68-163-110-267-110s-198 42-266 110-111 163-111 267 43 198 111 266 162 111 266 111 199-43 267-111 110-162 110-266-42-199-110-267z"/></g></svg>