<svg height="100" width="100" xmlns="http://www.w3.org/2000/svg"><path d="M25 6c-7.888 0-14 6.112-14 14 0 4.201 1.535 8.513 4.563 11.406C12.502 37.001 11 43.231 11 50c0 9.424 3.438 17.904 9 24.625V92a2 2 0 0 0 2 2h18a2 2 0 0 0 2-2v-4.375c2.477.701 5.099 1.375 8 1.375s5.523-.674 8-1.375V92a2 2 0 0 0 2 2h18a2 2 0 1 0 0-4H62v-5a2 2 0 0 0-2.531-1.938C56.223 83.972 53.04 85 50 85c-3.04 0-6.223-1.028-9.469-1.938A2 2 0 0 0 38 85v5H24V74a2 2 0 0 0-.5-1.313C18.189 66.537 15 58.75 15 50c0-6.74 1.512-12.705 4.719-17.969a2 2 0 0 0-.594-2.687C16.617 27.603 15 23.71 15 20c0-5.92 4.08-10 10-10 4.398 0 8.63 2.329 10.188 5.813a2 2 0 0 0 2.53 1.062C41.478 15.452 45.519 15 50 15s8.523.452 12.281 1.875a2 2 0 0 0 2.532-1.063C66.37 12.33 70.603 10 75 10c5.92 0 10 4.08 10 10 0 3.71-1.617 7.603-4.125 9.344a2 2 0 0 0-.594 2.687C83.488 37.295 85 43.261 85 50c0 8.749-3.189 16.538-8.5 22.688A2 2 0 0 0 76 74v10a2 2 0 1 0 4 0v-9.375c5.562-6.72 9-15.2 9-24.625 0-6.769-1.503-13-4.563-18.594C87.466 28.513 89 24.201 89 20c0-7.888-6.112-14-14-14-5.173 0-10.148 2.464-12.844 6.719C58.241 11.488 54.193 11 50 11c-4.193 0-8.241.488-12.156 1.719C35.148 8.464 30.174 6 25 6zm11 19a4 4 0 1 0 0 8 4 4 0 0 0 0-8zm28 0a4 4 0 1 0 0 8 4 4 0 0 0 0-8zM50 36c-10.47 0-19 8.53-19 19s8.53 19 19 19 19-8.53 19-19-8.53-19-19-19zm0 4c8.308 0 15 6.692 15 15s-6.692 15-15 15-15-6.692-15-15 6.692-15 15-15zm-6 11a4 4 0 1 0 0 8 4 4 0 0 0 0-8zm12 0a4 4 0 1 0 0 8 4 4 0 0 0 0-8z" style="text-indent:0;text-align:start;line-height:normal;text-transform:none;block-progression:tb;marker:none;-inkscape-font-specification:Sans" font-weight="400" color="#000" fill="#bcc9cf" stroke-width="4" overflow="visible" font-family="Sans"/></svg>