<svg xmlns="http://www.w3.org/2000/svg" width="120.677" height="117.475" version="1" viewBox="0 0 1132 1102" shape-rendering="geometricPrecision" text-rendering="geometricPrecision" image-rendering="optimizeQuality" fill-rule="evenodd" clip-rule="evenodd"><defs><style>.str0{stroke:#bfcbd0;stroke-width:53.163}.str0,.str1,.str2{stroke-linejoin:round}.str1{stroke:#ef7f1a;stroke-width:46.0746}.str2{stroke:#b0bec4;stroke-width:53.163;stroke-linecap:round}.fil0{fill:none}</style></defs><g id="Слой_x0020_1"><path class="fil0 str0" d="M464 1075H164"/><path class="fil0 str1" d="M921 440h138v317h-91m-47 0H738V440h138m23 12v92M646 757h138v322H463V757h137m23 23v92m361-115h121v322H784V757h115m45 23v92"/><path class="fil0 str2" d="M95 1020V249h1010v-41L600 27h-46L50 208v41h131"/><path class="fil0 str2" d="M27 1075h160V341h872M187 538h482M187 436h482"/></g></svg>